<svg xmlns="http://www.w3.org/2000/svg" viewBox="0 0 400 56" role="img" aria-label="审微 · ShenWei (SafeSpot)">
  <defs>
    <linearGradient id="sw-tile" x1="4" y1="4" x2="48" y2="48" gradientUnits="userSpaceOnUse">
      <stop offset="0%" stop-color="#127A55"/>
      <stop offset="100%" stop-color="#0D5E42"/>
    </linearGradient>
    <linearGradient id="sw-lock-stream" x1="10" y1="40" x2="42" y2="42" gradientUnits="userSpaceOnUse">
      <stop offset="0%" stop-color="#00D2FF" stop-opacity="0.3"/>
      <stop offset="50%" stop-color="#00D2FF" stop-opacity="0.95"/>
      <stop offset="100%" stop-color="#7CF0FF" stop-opacity="0.5"/>
    </linearGradient>
  </defs>

  <rect x="2" y="4" width="48" height="48" rx="12" fill="url(#sw-tile)"/>
  <circle cx="14" cy="14" r="10" fill="#fff" opacity="0.06"/>
  <circle cx="26" cy="24" r="11" fill="#F5F7FA" opacity="0.96"/>
  <circle cx="26" cy="24" r="8.6" fill="none" stroke="#0D5E42" stroke-width="1.4"/>
  <g stroke="#0D5E42" stroke-width="1.7" stroke-linecap="butt">
    <line x1="26" y1="14.2" x2="26" y2="19.2"/>
    <line x1="26" y1="28.8" x2="26" y2="33.8"/>
    <line x1="16.2" y1="24" x2="21.2" y2="24"/>
    <line x1="30.8" y1="24" x2="35.8" y2="24"/>
  </g>
  <circle cx="32" cy="28.2" r="2.8" fill="#F1C40F"/>
  <path d="M10 45 C15.5 43, 20.5 46.5, 26 44.8 C31 43.4, 35.5 44.5, 42 43.5"
        fill="none" stroke="url(#sw-lock-stream)" stroke-width="1.8" stroke-linecap="round"/>
  <g transform="translate(40 14)">
    <path d="M0-2.4 L0.55-0.55 L2.4 0 L0.55 0.55 L0 2.4 L-0.55 0.55 L-2.4 0 L-0.55-0.55 Z" fill="#00D2FF"/>
    <circle cx="0" cy="0" r="0.5" fill="#F5F7FA"/>
  </g>

  <text x="64" y="27" fill="#0D5E42" font-family="system-ui,-apple-system,'PingFang SC','Segoe UI',sans-serif"
        font-size="20" font-weight="800" letter-spacing="0.04em">审微 · ShenWei</text>
  <text x="64" y="46" fill="#64748B" font-family="system-ui,-apple-system,'PingFang SC','Segoe UI',sans-serif"
        font-size="11">察于至微，防于未萌 · SafeSpot</text>
</svg>
